<?xml version="1.0" encoding="utf-8"?>
<!-- Generator: Adobe Illustrator 25.2.0, SVG Export Plug-In . SVG Version: 6.00 Build 0)  -->
<svg version="1.1" id="Layer_1" xmlns="http://www.w3.org/2000/svg" xmlns:xlink="http://www.w3.org/1999/xlink" x="0px" y="0px"
	 width="24px" height="24px" viewBox="0 0 24 24" enable-background="new 0 0 24 24" xml:space="preserve">
<path fill="#FFFFFF" d="M2,0.5h20c0.8284,0,1.5,0.6716,1.5,1.5v20c0,0.8284-0.6716,1.5-1.5,1.5H2c-0.8284,0-1.5-0.6716-1.5-1.5V2
	C0.5,1.1716,1.1716,0.5,2,0.5z"/>
<path fill="#121212" d="M12.6667,6H8v12h2.6667v-4h2c2.2066,0,4-1.7933,4-4C16.6667,7.7933,14.8733,6,12.6667,6z M12.8,11.3333
	h-2.1333V8.6667H12.8c0.7333,0,1.3333,0.6,1.3333,1.3333C14.1333,10.7333,13.5333,11.3333,12.8,11.3333z"/>
<path fill="none" stroke="#121212" d="M2,0.5h20c0.8284,0,1.5,0.6716,1.5,1.5v20c0,0.8284-0.6716,1.5-1.5,1.5H2
	c-0.8284,0-1.5-0.6716-1.5-1.5V2C0.5,1.1716,1.1716,0.5,2,0.5z"/>
</svg>
