<?xml version="1.0" encoding="utf-8"?>
<!-- Generator: Adobe Illustrator 25.2.0, SVG Export Plug-In . SVG Version: 6.00 Build 0)  -->
<svg version="1.1" id="Layer_1" xmlns="http://www.w3.org/2000/svg" xmlns:xlink="http://www.w3.org/1999/xlink" x="0px" y="0px"
	 width="40px" height="40px" viewBox="0 0 40 40" enable-background="new 0 0 40 40" xml:space="preserve">
<path fill="#E12D43" d="M32.3333,12c0-6.62-5.38-12-12-12s-12,5.38-12,12c0,9,12,22,12,22S32.3333,21,32.3333,12z M16.3333,12
	c0-2.2,1.8-4,4-4s4,1.8,4,4s-1.78,4-4,4C18.1333,16,16.3333,14.2,16.3333,12z M16.3333,36c-1.1045,0-2,0.8954-2,2l0,0
	c0,1.1046,0.8955,2,2,2h8c1.1046,0,2-0.8954,2-2l0,0c0-1.1046-0.8954-2-2-2H16.3333z"/>
</svg>
