<svg width="15" height="24" viewBox="0 0 15 24" fill="none" xmlns="http://www.w3.org/2000/svg">
<path d="M14.4 7.2C14.4 3.228 11.172 0 7.2 0C3.228 0 0 3.228 0 7.2C0 12.6 7.2 20.4 7.2 20.4C7.2 20.4 14.4 12.6 14.4 7.2ZM4.8 7.2C4.8 5.88 5.88 4.8 7.2 4.8C8.52 4.8 9.6 5.88 9.6 7.2C9.6 8.52 8.532 9.6 7.2 9.6C5.88 9.6 4.8 8.52 4.8 7.2ZM4.8 21.6C4.13726 21.6 3.6 22.1373 3.6 22.8C3.6 23.4627 4.13726 24 4.8 24H9.6C10.2627 24 10.8 23.4627 10.8 22.8C10.8 22.1373 10.2627 21.6 9.6 21.6H4.8Z" fill="#121212"/>
</svg>
